<svg width="64" height="64" viewBox="0 0 64 64" fill="none" xmlns="http://www.w3.org/2000/svg">
    <path d="M27.3915 17.0661C27.3062 17.0661 27.2208 16.9808 27.2208 16.8101C27.2208 16.7248 27.3062 16.6395 27.3915 16.6395C27.5622 16.6395 28.0741 16.6395 28.0741 16.6395C28.2448 16.6395 28.3301 16.8101 28.3301 16.9808V19.7114C28.3301 19.9674 28.3301 20.138 28.5008 20.2234C28.6715 20.3087 28.7568 20.2234 28.7568 20.394C28.7568 20.4794 28.6714 20.5647 28.5861 20.5647H27.3062C27.1355 20.5647 27.1355 20.5647 27.1355 20.394C27.1355 20.3087 27.2208 20.2234 27.3915 20.2234C27.5622 20.138 27.6475 19.9674 27.6475 19.7114V17.4074C27.6475 17.1514 27.4768 17.0661 27.3915 17.0661Z" fill="#FF3300"/>
    <path d="M32.1698 17.0661C32.0845 17.0661 31.9991 16.9808 31.9991 16.8101C31.9991 16.7248 32.0845 16.6395 32.1698 16.6395C32.3405 16.6395 32.8524 16.6395 32.8524 16.6395C33.0231 16.6395 33.1084 16.8101 33.1084 16.9808V19.7114C33.1084 19.9674 33.1084 20.138 33.3644 20.2234C33.5351 20.3087 33.6204 20.2234 33.6204 20.394C33.6204 20.4794 33.5351 20.5647 33.3644 20.5647H32.0845C31.9138 20.5647 31.9138 20.5647 31.9138 20.394C31.9138 20.3087 31.9991 20.2234 32.1698 20.2234C32.3405 20.138 32.4258 19.9674 32.4258 19.7114V17.4074C32.3405 17.1514 32.2551 17.0661 32.1698 17.0661Z" fill="#FF3300"/>
    <path d="M23.4663 32.6816C23.2957 32.6816 23.125 32.6816 23.125 32.511C23.125 32.3403 23.381 32.4256 23.5517 32.3403C23.8077 32.255 23.893 31.9137 23.893 31.5723C23.893 31.1457 23.7223 30.975 23.4663 30.975C23.2957 30.975 23.2104 31.0603 23.2104 31.231C23.2104 31.3163 23.2957 31.487 23.2104 31.6577C23.125 31.743 23.0397 31.8283 22.9544 31.8283C22.6984 31.8283 22.613 31.6577 22.613 31.4017C22.613 31.0603 22.9544 30.719 23.5517 30.719C24.2343 30.719 24.661 31.0603 24.661 31.5723C24.661 31.8283 24.5756 32.255 24.3197 32.4256C24.2343 32.511 24.2343 32.5963 24.3197 32.5963C24.661 32.767 24.917 33.1083 24.917 33.6203C24.917 34.3029 24.405 34.7296 23.5517 34.7296C22.7837 34.7296 22.4424 34.4736 22.4424 34.0469C22.4424 33.7909 22.613 33.6203 22.869 33.6203C23.0397 33.6203 23.2104 33.7909 23.125 34.0469C23.0397 34.3029 23.2104 34.4736 23.4663 34.4736C23.8077 34.4736 24.0637 34.2176 24.0637 33.7056C24.149 33.1083 23.9783 32.767 23.4663 32.6816Z" fill="#FF3300"/>
    <path d="M29.61 43.9461C29.61 43.4341 29.866 43.0928 30.122 43.0928C30.378 43.0928 30.634 43.3488 30.634 44.0315C30.634 44.6288 30.378 44.7994 30.122 44.7994C29.7807 44.8848 29.61 44.5434 29.61 43.9461ZM30.2073 45.2261C30.378 45.1408 30.378 45.3114 30.378 45.3967C30.2927 45.9087 29.9513 46.0794 29.7807 46.2501C29.5247 46.4207 29.354 46.4207 29.354 46.5914C29.354 46.6767 29.4394 46.762 29.61 46.762C29.9513 46.6767 30.2927 46.4207 30.634 46.1647C30.9753 45.8234 31.4873 45.0554 31.4873 44.3728C31.4873 43.3488 30.89 42.7515 30.122 42.7515C29.354 42.7515 28.842 43.3488 28.842 44.0315C28.842 44.7994 29.1834 45.1408 29.7807 45.2261C29.9513 45.2261 30.122 45.2261 30.2073 45.2261Z" fill="#FF3300"/>
    <path d="M30.3781 20.2238C30.7194 20.2238 30.9754 19.9678 30.9754 19.3705C30.9754 18.7731 30.7194 18.5171 30.4634 18.5171C30.1221 18.5171 29.9515 18.6878 29.9515 19.3705C29.7808 20.0531 30.0368 20.2238 30.3781 20.2238V20.5651H30.2928C29.5248 20.5651 29.0981 19.9678 29.0981 19.3705C29.0981 19.0291 29.2688 18.6878 29.6101 18.4318C29.6955 18.3465 29.6955 18.2611 29.6101 18.1758C29.4395 18.0052 29.3541 17.8345 29.3541 17.4932C29.3541 17.0665 29.6955 16.6399 30.3781 16.5545V16.8959C30.2074 16.8959 30.0368 17.0665 30.0368 17.4932C30.0368 17.9198 30.2074 18.0905 30.3781 18.0905C30.5488 18.0905 30.7194 18.0052 30.7194 17.4932C30.7194 17.0665 30.5488 16.8959 30.3781 16.8959V16.5545C31.0608 16.5545 31.4021 16.9812 31.4021 17.4932C31.4021 17.7492 31.3167 18.0052 31.1461 18.1758C31.1461 18.1758 31.0608 18.3465 31.1461 18.4318C31.4874 18.6025 31.6581 19.0291 31.6581 19.2851C31.6581 19.9678 31.2314 20.4798 30.3781 20.5651V20.2238Z" fill="#FF3300"/>
    <path d="M41.8976 34.3033C42.239 34.3033 42.4949 34.0473 42.4949 33.45C42.4949 32.8527 42.239 32.5967 41.983 32.5967C41.6416 32.5967 41.471 32.7674 41.471 33.45C41.3003 34.1326 41.5563 34.3033 41.8976 34.3033V34.6446H41.8123C41.0443 34.6446 40.6177 34.0473 40.6177 33.45C40.6177 33.1087 40.7883 32.7674 41.1297 32.5114C41.215 32.426 41.215 32.3407 41.1297 32.2554C40.959 32.0847 40.8737 31.9141 40.8737 31.5727C40.8737 31.1461 41.215 30.6341 41.8976 30.6341V30.9754C41.727 30.9754 41.5563 31.1461 41.5563 31.5727C41.5563 31.9994 41.727 32.17 41.8976 32.17C42.0683 32.17 42.239 32.0847 42.239 31.5727C42.239 31.1461 42.0683 30.9754 41.8976 30.9754V30.6341C42.5803 30.6341 42.9216 31.0607 42.9216 31.5727C42.9216 31.8287 42.8363 32.0847 42.6656 32.2554C42.6656 32.2554 42.5803 32.426 42.6656 32.5114C43.0069 32.682 43.1776 33.1087 43.1776 33.3647C43.1776 34.0473 42.7509 34.5593 41.8976 34.6446V34.3033Z" fill="#FF3300"/>
    <path d="M47.7853 34.3033C48.1267 34.3033 48.3826 34.0473 48.3826 33.45C48.3826 32.8527 48.1267 32.5967 47.8707 32.5967C47.5293 32.5967 47.3587 32.7674 47.3587 33.45C47.188 34.1326 47.444 34.3033 47.7853 34.3033V34.6446H47.7C46.932 34.6446 46.5054 34.0473 46.5054 33.45C46.5054 33.1087 46.676 32.7674 47.0174 32.5114C47.1027 32.426 47.1027 32.3407 47.0174 32.2554C46.8467 32.0847 46.7614 31.9141 46.7614 31.5727C46.7614 31.1461 47.1027 30.6341 47.7853 30.6341V30.9754C47.6147 30.9754 47.444 31.1461 47.444 31.5727C47.444 31.9994 47.6147 32.17 47.7853 32.17C47.956 32.17 48.1267 32.0847 48.1267 31.5727C48.1267 31.1461 47.956 30.9754 47.7853 30.9754V30.6341C48.468 30.6341 48.8093 31.0607 48.8093 31.5727C48.8093 31.8287 48.724 32.0847 48.5533 32.2554C48.468 32.2554 48.468 32.426 48.5533 32.5114C48.8946 32.682 49.0653 33.1087 49.0653 33.3647C49.0653 34.0473 48.6386 34.5593 47.7853 34.6446V34.3033Z" fill="#FF3300"/>
    <path d="M18.0903 34.3033C18.4316 34.3033 18.6876 34.0473 18.6876 33.45C18.6876 32.8527 18.4316 32.5967 18.1756 32.5967C17.8343 32.5967 17.6636 32.7674 17.6636 33.45C17.5783 34.1326 17.7489 34.3033 18.0903 34.3033V34.6446H18.0049C17.237 34.6446 16.8103 34.0473 16.8103 33.45C16.8103 33.1087 16.981 32.7674 17.3223 32.5114C17.4076 32.426 17.4076 32.3407 17.3223 32.2554C17.1516 32.0847 17.0663 31.9141 17.0663 31.5727C17.0663 31.1461 17.4076 30.7194 18.0903 30.6341V30.9754C17.9196 30.9754 17.7489 31.1461 17.7489 31.5727C17.7489 31.9994 17.9196 32.17 18.0903 32.17C18.2609 32.17 18.4316 32.0847 18.4316 31.5727C18.4316 31.1461 18.2609 30.9754 18.0903 30.9754V30.6341C18.7729 30.6341 19.1142 31.0607 19.1142 31.5727C19.1142 31.8287 19.0289 32.0847 18.8582 32.2554C18.8582 32.2554 18.7729 32.426 18.8582 32.5114C19.1996 32.682 19.3702 33.1087 19.3702 33.3647C19.3702 34.0473 18.9436 34.5593 18.0903 34.6446V34.3033Z" fill="#FF3300"/>
    <path d="M36.0949 46.3349C36.4362 46.3349 36.6922 46.0789 36.6922 45.4816C36.6922 44.8843 36.4362 44.6283 36.1802 44.6283C35.8389 44.6283 35.6682 44.799 35.6682 45.4816C35.4976 46.1643 35.7536 46.3349 36.0949 46.3349V46.6763H36.0096C35.2416 46.6763 34.8149 46.0789 34.8149 45.4816C34.8149 45.1403 34.9856 44.799 35.3269 44.543C35.4123 44.4577 35.4123 44.3723 35.3269 44.287C35.1563 44.1163 35.0709 43.9457 35.0709 43.6043C35.0709 43.1777 35.4123 42.751 36.0949 42.6657V43.007C35.9242 43.007 35.7536 43.1777 35.7536 43.6043C35.7536 44.031 35.9242 44.2017 36.0949 44.2017C36.2656 44.2017 36.4362 44.1163 36.4362 43.6043C36.4362 43.1777 36.2656 43.007 36.0949 43.007V42.6657C36.7775 42.6657 37.1189 43.0924 37.1189 43.6043C37.1189 43.8603 37.0335 44.1163 36.8629 44.287C36.8629 44.287 36.7775 44.4577 36.8629 44.543C37.2042 44.7137 37.3749 45.1403 37.3749 45.3963C37.3749 46.0789 36.9482 46.5909 36.0949 46.6763V46.3349Z" fill="#FF3300"/>
    <path d="M38.9961 31.1457C38.9108 31.1457 38.8254 31.0603 38.8254 30.8897C38.8254 30.8044 38.9108 30.719 38.9961 30.719C39.1668 30.719 39.6787 30.719 39.6787 30.719C39.8494 30.719 39.9347 30.8897 39.9347 31.0603V33.7909C39.9347 34.0469 39.9347 34.2176 40.1907 34.3029C40.3614 34.3882 40.4467 34.3029 40.4467 34.4736C40.4467 34.5589 40.3614 34.5589 40.2761 34.5589H38.9961C38.8254 34.5589 38.8254 34.5589 38.8254 34.4736C38.8254 34.3882 38.9108 34.3029 39.0814 34.3029C39.2521 34.2176 39.3374 34.0469 39.3374 33.7909V31.487C39.1668 31.231 39.0814 31.1457 38.9961 31.1457Z" fill="#FF3300"/>
    <path d="M45.14 33.962C45.3959 33.962 45.4813 33.8767 45.4813 33.8767C45.5666 33.7913 45.6519 33.706 45.7373 33.706C45.8226 33.706 45.9079 33.7913 45.9079 33.962C45.9079 34.218 45.9079 34.474 45.8226 34.5593C45.8226 34.6446 45.6519 34.6446 45.5666 34.6446H43.7747C43.604 34.6446 43.4333 34.6446 43.4333 34.474C43.4333 34.3033 43.4333 34.218 43.7747 33.7913C44.116 33.45 44.7986 32.938 44.884 32.7674C45.0546 32.5114 45.14 32.2554 45.2253 31.9994C45.2253 31.6581 45.14 31.2314 44.7133 31.2314C44.4573 31.2314 44.372 31.4021 44.2867 31.4874C44.2013 31.6581 44.2867 31.6581 44.2867 31.8287C44.2867 31.9994 44.116 32.17 43.9453 32.17C43.6893 32.17 43.5187 31.9994 43.5187 31.6581C43.5187 31.2314 43.86 30.8047 44.628 30.8047C45.3106 30.8047 45.9079 31.1461 45.9079 31.8287C45.9079 32.17 45.8226 32.5114 45.5666 32.8527C45.2253 33.2793 44.116 33.962 44.4573 34.0473H45.14V33.962Z" fill="#FF3300"/>
    <path d="M21.3328 33.962C21.5888 33.962 21.6742 33.8767 21.6742 33.8767C21.7595 33.7913 21.8448 33.706 21.9302 33.706C22.0155 33.706 22.1008 33.7913 22.1008 33.962C22.1008 34.218 22.1008 34.474 22.0155 34.5593C21.9302 34.6446 21.8448 34.6446 21.7595 34.6446H19.9675C19.7969 34.6446 19.6262 34.6446 19.6262 34.474C19.6262 34.3033 19.6262 34.218 19.9675 33.7913C20.3942 33.45 20.9915 32.938 21.0768 32.7674C21.2475 32.5114 21.3328 32.2554 21.4182 31.9994C21.4182 31.6581 21.3328 31.2314 20.9062 31.2314C20.6502 31.2314 20.5649 31.4021 20.4795 31.4874C20.4795 31.6581 20.5649 31.6581 20.5649 31.8287C20.5649 31.9994 20.3942 32.17 20.2235 32.17C19.9675 32.17 19.7969 31.9994 19.7969 31.6581C19.7969 31.2314 20.1382 30.8047 20.9062 30.8047C21.5888 30.8047 22.1861 31.1461 22.1861 31.8287C22.1861 32.17 22.1008 32.5114 21.8448 32.8527C21.5035 33.2793 20.3942 33.962 20.7355 34.0473H21.3328V33.962Z" fill="#FF3300"/>
    <path d="M33.45 45.9936C33.706 45.9936 33.7913 45.9083 33.7913 45.9083C33.8767 45.823 33.962 45.7376 34.0473 45.7376C34.1327 45.7376 34.218 45.823 34.218 45.9936C34.218 46.2496 34.218 46.5056 34.1327 46.591C34.1327 46.6763 33.962 46.6763 33.8767 46.6763H32.0847C31.9141 46.6763 31.7434 46.6763 31.7434 46.5056C31.7434 46.335 31.7434 46.2496 32.0847 45.823C32.426 45.3963 33.1087 44.9697 33.194 44.799C33.3647 44.543 33.45 44.287 33.5353 44.031C33.5353 43.6897 33.3647 43.263 33.0234 43.263C32.7674 43.263 32.682 43.4337 32.5967 43.519C32.5967 43.6897 32.682 43.6897 32.682 43.8604C32.682 44.031 32.5114 44.2017 32.3407 44.2017C32.0847 44.2017 31.9141 44.031 31.9141 43.6897C31.9141 43.263 32.2554 42.8364 33.0234 42.8364C33.706 42.8364 34.3033 43.1777 34.3033 43.8604C34.3033 44.2017 34.218 44.543 33.962 44.8843C33.6207 45.311 32.5114 45.9936 32.8527 46.079H33.45V45.9936Z" fill="#FF3300"/>
    <path d="M35.9246 19.8824C36.1806 19.8824 36.2659 19.7971 36.2659 19.7971C36.3513 19.7118 36.4366 19.6264 36.5219 19.6264C36.6073 19.6264 36.6926 19.7118 36.6926 19.8824C36.6926 20.1384 36.6926 20.3944 36.6073 20.4797C36.6073 20.5651 36.4366 20.5651 36.3513 20.5651H34.5593C34.3887 20.5651 34.218 20.5651 34.218 20.3944C34.218 20.2238 34.218 20.1384 34.5593 19.7118C34.9007 19.3704 35.5833 18.8585 35.6686 18.6878C35.8393 18.4318 35.9246 18.1758 36.01 17.9198C36.01 17.5785 35.8393 17.1518 35.498 17.1518C35.242 17.1518 35.1567 17.3225 35.0713 17.4078C35.0713 17.5785 35.1567 17.5785 35.1567 17.7492C35.1567 17.9198 34.986 18.0905 34.8153 18.0905C34.5593 18.0905 34.3887 17.9198 34.3887 17.5785C34.3887 17.1518 34.73 16.7252 35.498 16.7252C36.1806 16.7252 36.7779 17.0665 36.7779 17.7492C36.7779 18.0905 36.6926 18.4318 36.4366 18.7731C36.0953 19.1998 34.986 19.8824 35.3273 19.9678H35.9246V19.8824Z" fill="#FF3300"/>
    <path d="M15.1038 31.1457C15.0184 31.1457 14.9331 31.0603 14.9331 30.8897C14.9331 30.8044 15.0184 30.719 15.1038 30.719C15.2744 30.719 15.7864 30.719 15.7864 30.719C15.9571 30.719 16.0424 30.8897 16.0424 31.0603V33.7909C16.0424 34.0469 16.0424 34.2176 16.2984 34.3029C16.4691 34.3882 16.5544 34.3029 16.5544 34.4736C16.5544 34.5589 16.4691 34.6442 16.3837 34.6442H15.1038C14.9331 34.6442 14.9331 34.6442 14.9331 34.4736C14.9331 34.3883 15.0184 34.3029 15.1891 34.3029C15.3598 34.2176 15.4451 34.0469 15.4451 33.7909V31.487C15.3598 31.231 15.1891 31.1457 15.1038 31.1457Z" fill="#FF3300"/>
    <path d="M27.1356 43.1781C27.0503 43.1781 26.965 43.0928 26.965 42.9222C26.965 42.8368 27.0503 42.7515 27.1356 42.7515C27.3063 42.7515 27.8183 42.7515 27.8183 42.7515C27.9889 42.7515 28.0743 42.9222 28.0743 43.0928V45.8234C28.0743 46.0794 28.0743 46.2501 28.3303 46.3354C28.5009 46.4207 28.5863 46.3354 28.5863 46.506C28.5863 46.5914 28.5009 46.6767 28.3303 46.6767H27.0503C26.8796 46.6767 26.8796 46.6767 26.8796 46.506C26.8796 46.4207 26.965 46.3354 27.1356 46.3354C27.3063 46.2501 27.3063 46.0794 27.3063 45.9087V43.5195C27.3063 43.3488 27.221 43.2635 27.1356 43.1781Z" fill="#FF3300"/>
    <path d="M44.1163 23.1252C44.1163 23.1252 46.8468 20.6506 45.9082 19.7973C45.3962 19.3707 44.2869 19.8827 42.495 20.8213C41.471 21.4186 37.2898 24.1492 31.3167 30.8903L32.5113 31.9996C34.7299 30.037 37.6311 27.4771 38.7404 26.4531C40.5324 24.8318 43.8603 22.4426 44.0309 22.5279C44.3722 22.6986 43.5189 23.6372 43.5189 23.6372C44.9696 23.3812 41.1297 26.4531 41.1297 26.4531C43.4336 26.1118 37.2045 29.8664 37.2045 29.8664C39.0817 29.6104 35.0712 31.7436 35.0712 31.7436C35.6685 31.9143 34.6445 32.5116 33.7059 33.0236L34.0472 33.3649C35.3272 32.6823 36.2658 31.9996 35.9245 31.7436C35.9245 31.7436 38.8257 30.037 38.3991 29.6104C38.3991 29.6104 43.2629 26.5385 42.1536 26.1971C42.0683 26.2825 45.4815 23.2959 44.1163 23.1252ZM39.6791 24.4905C37.4605 26.2825 32.8526 30.805 32.3406 31.2316C31.8286 31.6583 31.914 31.317 32.0846 31.1463C32.0846 31.1463 33.9619 28.6717 38.3138 24.7465C42.6656 20.9066 45.2255 19.8827 45.3109 19.968C45.5669 20.3093 41.8977 22.7839 39.6791 24.4905Z" fill="#FF3300"/>
    <path d="M31.8285 34.0478C29.7806 35.0718 29.7806 34.5598 29.9513 34.3892C30.1219 34.2185 30.4632 33.7918 31.0606 33.2799L30.0366 32.3412C29.5246 32.9385 29.0126 33.5358 28.5006 34.1332C28.33 34.3892 27.562 35.2425 27.4767 35.5838C27.3913 35.9251 27.306 36.1811 26.7087 36.4371C26.1114 36.6931 22.7835 39.3383 19.5409 44.5435C19.2849 44.9701 19.2849 45.2261 19.8822 44.6288C20.4795 44.1168 22.9541 42.4102 24.2341 41.8982C24.2341 41.8982 25.3434 40.533 27.3913 36.9491C27.3913 36.9491 30.1219 35.7544 30.2072 35.1571C30.2072 35.1571 31.1459 34.7305 32.2552 34.2185L31.8285 34.0478ZM23.7221 41.3863C23.1248 41.6423 22.2715 42.1542 22.2715 42.1542C23.2101 40.533 24.5754 39.1677 25.6847 38.229C24.6608 40.1916 23.7221 41.3863 23.7221 41.3863Z" fill="#FF3300"/>
    <path d="M19.2852 20.0531C19.4559 19.8824 19.7118 19.9677 20.1385 20.3944C20.4798 20.8211 20.5651 21.077 20.3945 21.2477C20.2238 21.4184 20.0532 21.333 19.7972 21.1624C19.5412 20.9064 19.4558 20.8211 19.4558 20.6504C19.4558 20.5651 19.2852 20.4797 19.2852 20.3091C19.1999 20.2237 19.1999 20.1384 19.2852 20.0531Z" fill="#FF3300"/>
    <path d="M19.2851 21.3335C19.4557 21.2482 19.5411 21.5042 19.6264 21.6749C19.7117 21.8455 19.8824 22.0162 20.1384 22.1868C20.3944 22.3575 20.309 22.5282 20.2237 22.6135C20.1384 22.6988 19.7971 22.6135 19.4557 22.1868C19.1144 21.8455 19.0291 21.5042 19.2851 21.3335Z" fill="#FF3300"/>
    <path d="M44.799 44.1159L43.9456 43.2625C43.4337 42.7506 43.007 42.3239 42.495 41.8119C42.4097 41.3853 42.1537 40.9586 41.8977 40.7026C41.6417 40.3613 41.1297 40.1053 40.6177 40.02C40.0204 39.4227 39.4231 38.8253 38.9111 38.3134C38.8258 37.716 38.4845 36.9481 37.8872 36.2654C37.3752 35.6681 36.6925 35.5828 36.2659 35.5828C35.6686 34.9855 35.1566 34.4735 34.6446 33.9615C34.5593 33.1082 34.3886 32.4255 33.962 31.9989C33.3646 31.4016 32.682 31.1456 31.8287 31.1456C31.7434 31.0603 31.658 30.9749 31.658 30.9749C30.7194 29.951 29.8661 29.0123 29.0128 28.2443C29.0128 27.0497 28.8421 26.3671 28.3301 25.8551C27.7328 25.1724 26.6235 25.0018 25.8555 25.0871C25.1729 24.4045 24.6609 23.8071 24.1489 23.3805C24.8316 23.3805 25.5142 23.5512 25.6849 23.6365C25.9409 23.7218 26.4529 23.7218 26.6235 23.5512C26.7942 23.4658 26.8795 23.3805 27.1355 23.3805C27.3915 23.3805 27.4768 23.2952 27.4768 23.1245C27.5622 22.6978 27.3062 22.1859 26.5382 21.8445C25.8555 21.3326 25.1729 21.2472 24.7462 21.3326C24.2343 21.4179 23.9783 21.6739 23.8076 21.7592C23.6369 21.8445 23.4663 22.0152 23.0396 22.0152H22.9543C22.2717 21.3326 21.9303 20.9059 21.845 20.9059C21.5037 20.5646 21.2477 20.3086 21.2477 20.1379C21.333 19.7966 21.1624 19.4553 20.9917 19.2846C20.7357 19.114 20.4797 19.0286 20.1384 19.1993C19.8824 19.3699 19.7117 19.3699 19.4557 19.3699H19.2851C19.1144 19.3699 18.8584 19.2846 18.4318 19.6259C18.0905 19.8819 18.0905 20.4792 18.0905 20.6499C18.0905 20.7352 18.0905 20.9912 18.0051 21.1619V21.3326C18.0051 21.6739 18.0905 22.2712 18.4318 22.6978C18.6024 22.9538 18.7731 22.9538 19.0291 23.2098C19.1998 23.3805 19.5411 23.9778 19.7971 24.6605C19.8824 24.7458 19.9677 24.9164 20.0531 25.0871C20.0531 25.8551 20.3944 26.6231 20.9917 27.0497C22.0157 27.7324 22.613 27.647 24.1489 27.7324C24.7462 28.159 25.4289 28.671 26.0262 29.2683C26.0262 29.2683 26.1969 29.439 26.4529 29.6096C26.3675 30.4629 26.4529 31.7429 27.3062 32.5109C28.3301 33.4495 29.6101 33.4495 30.8901 33.5348C31.5727 34.1322 32.2553 34.7295 33.0233 35.4121C33.0233 36.0094 33.194 36.6921 33.706 37.1187C34.218 37.6307 35.0713 37.5454 35.3273 37.4601C36.0099 38.0574 36.6925 38.6547 37.2899 39.252C37.4605 39.9346 37.7165 40.7026 38.3138 41.1293C38.7405 41.4706 39.5085 41.6413 40.1058 41.7266L43.9456 45.1398C44.3723 45.4811 44.7136 45.4811 44.8843 45.3105C45.1403 44.8838 45.2256 44.5425 44.799 44.1159ZM27.6475 26.2817C27.9888 26.1964 28.1595 26.1964 28.1595 26.2817C28.1595 26.3671 28.1595 26.4524 27.7328 26.6231C27.3915 26.7084 27.2208 26.7084 27.2208 26.6231C27.2208 26.4524 27.3915 26.3671 27.6475 26.2817ZM27.2208 28.159C27.2208 28.0737 27.3062 27.8177 27.3915 27.4764C27.4768 27.2204 27.6475 27.0497 27.9035 27.0497C28.1595 27.0497 28.4155 27.2204 28.4155 27.391C28.4155 27.4764 28.3301 27.4764 28.1595 27.5617C27.9888 27.647 27.9035 27.7324 27.9035 27.9883C27.9035 28.2443 28.1595 28.159 28.3301 28.0737C28.5008 27.9883 28.5861 28.159 28.5008 28.3297C28.4155 28.5003 28.2448 28.5003 27.9888 28.5003C27.7328 28.5003 27.8182 28.7563 27.9888 28.7563C28.3301 28.8417 28.5008 28.927 28.4155 29.0976C28.3301 29.2683 27.9035 29.2683 27.5622 29.0976C27.0502 29.0123 27.0502 28.415 27.2208 28.159ZM23.9783 22.2712C24.0636 22.0152 24.3196 21.8445 24.4903 21.8445C25.2582 21.5885 25.9409 21.9299 26.2822 22.1005C26.6235 22.2712 26.8795 22.6125 26.7089 22.7832C26.6235 22.8685 26.4529 22.7832 26.2822 22.6978C26.1115 22.6125 25.9409 22.6125 25.8555 22.6978C25.7702 22.7832 25.6849 22.8685 25.5142 22.8685C25.3436 22.8685 25.2582 22.8685 25.0876 22.7832C24.9169 22.6978 24.7462 22.6125 24.5756 22.6978C24.4903 22.6978 24.4903 22.8685 24.5756 22.9538C24.6609 23.0392 24.6609 23.0392 24.5756 23.1245C24.4903 23.2098 24.3196 23.1245 24.1489 23.0392C23.9783 22.8685 23.8929 22.5272 23.9783 22.2712ZM23.4663 22.5272C23.5516 22.5272 23.637 22.5272 23.637 22.6125C23.7223 22.6978 23.7223 22.8685 23.637 22.9538C23.5516 23.0392 23.381 22.8685 23.381 22.7832C23.381 22.6978 23.2956 22.5272 23.4663 22.5272ZM22.6983 22.2712C22.7836 22.1859 22.9543 22.2712 23.0396 22.4419C23.125 22.6125 23.125 22.8685 23.0396 22.9538C22.9543 23.0392 22.7836 22.9538 22.7836 22.7832C22.7836 22.6125 22.6983 22.5272 22.6983 22.5272C22.613 22.4419 22.613 22.2712 22.6983 22.2712ZM22.5277 23.1245C22.4423 23.2098 22.2717 23.2098 22.2717 23.0392C22.2717 22.8685 22.1863 22.7832 22.101 22.6978C21.9303 22.6125 21.845 22.4419 22.0157 22.4419C22.101 22.3565 22.2717 22.4419 22.4423 22.6125C22.4423 22.6978 22.613 23.0392 22.5277 23.1245ZM19.2851 22.5272C19.0291 22.3565 18.9438 22.3565 18.8584 22.1859C18.6024 21.9299 18.4318 21.5032 18.5171 21.2472C18.5171 21.2472 18.6024 20.8206 18.6024 20.6499C18.5171 20.3939 18.5171 19.9673 18.7731 19.8819C18.9438 19.7113 19.1144 19.7113 19.2851 19.7113H19.4557C19.7117 19.7113 19.8824 19.7966 20.1384 19.6259C20.3091 19.5406 20.4797 19.6259 20.565 19.7113C20.9064 20.0526 20.6504 20.3939 20.6504 20.4792C20.6504 20.8206 20.9064 21.0766 21.2477 21.3326C21.2477 21.3326 21.5037 21.5032 22.0157 22.1005C21.6743 22.1859 21.2477 22.3565 20.821 22.6978C20.4797 22.9538 20.2237 23.4658 20.1384 23.9778C19.9677 23.3805 19.6264 22.6978 19.2851 22.5272ZM20.6504 23.9778C20.821 23.8925 21.077 23.8925 21.2477 23.9778C21.4184 24.0631 21.589 24.1485 21.589 24.2338C21.589 24.3191 21.589 24.3191 21.4184 24.3191C21.2477 24.2338 20.9917 24.3191 20.821 24.3191C20.4797 24.4045 20.4797 24.1485 20.6504 23.9778ZM20.7357 25.2578C20.565 25.2578 20.565 25.0871 20.565 24.9164C20.6504 24.6605 20.9064 24.5751 21.1624 24.4898C21.2477 24.4898 21.4184 24.4045 21.589 24.4898C21.7597 24.5751 21.7597 24.7458 21.6743 24.7458C21.589 24.8311 21.4184 24.8311 21.333 24.9164C21.2477 24.9164 21.1624 25.0018 21.077 25.0871C20.9917 25.1724 20.9064 25.2578 20.7357 25.2578ZM21.2477 25.8551C21.1624 26.0257 20.9917 26.0257 20.9917 26.0257C20.9064 26.0257 20.9064 25.9404 20.9064 25.8551C20.9064 25.7698 21.077 25.5138 21.2477 25.4284C21.4184 25.3431 21.6743 25.2578 21.6743 25.3431C21.6743 25.4284 21.7597 25.5138 21.6743 25.5138C21.589 25.5138 21.333 25.6844 21.2477 25.8551ZM21.7597 25.9404C21.6743 26.0257 21.6743 26.1111 21.6743 26.1964C21.6743 26.2817 21.589 26.3671 21.5037 26.2817C21.4184 26.2817 21.4184 26.1111 21.4184 26.0257C21.4184 25.9404 21.5037 25.8551 21.6743 25.7698C21.7597 25.7698 21.845 25.8551 21.7597 25.9404ZM21.6743 23.8925C21.589 23.8925 21.5037 23.8925 21.4184 23.8071C21.333 23.7218 21.1624 23.7218 20.9917 23.6365C20.565 23.4658 20.821 23.0392 21.077 22.7832C21.1624 22.6978 21.333 22.6125 21.4184 22.6125C21.589 22.6125 21.7597 22.6978 21.7597 22.8685C21.7597 23.0392 21.845 23.2098 21.845 23.2952C21.9303 23.4658 21.9303 23.5512 21.7597 23.7218C21.7597 23.8925 21.7597 23.8925 21.6743 23.8925ZM22.1863 26.2817C22.1863 26.3671 22.1863 26.4524 22.101 26.5377C22.101 26.6231 22.0157 26.6231 21.9303 26.6231C21.845 26.5377 21.845 26.3671 21.9303 26.2817C22.0157 26.1111 22.101 26.1111 22.1863 26.1964V26.2817ZM26.5382 28.927V29.0123C26.4529 28.927 26.3675 28.8417 26.3675 28.8417C25.4289 27.9883 24.3196 27.135 23.5516 26.7937C23.125 26.5377 22.6983 26.3671 22.6983 26.3671C22.0157 25.9404 21.7597 24.6605 22.2717 23.9778C22.5277 23.6365 22.9543 23.4658 23.381 23.3805C24.1489 24.0631 25.0876 25.0018 26.3675 26.2817C26.5382 26.4524 26.7942 26.9644 26.5382 28.927ZM26.7089 25.9404C26.6235 25.9404 26.6235 25.7698 26.7089 25.5991C26.7942 25.3431 26.8795 25.3431 26.9648 25.3431C27.0502 25.3431 27.0502 25.4284 26.9648 25.6844C26.8795 25.9404 26.7942 26.0257 26.7089 25.9404ZM27.1355 31.1456C26.8795 30.9749 26.8795 30.7189 26.9648 30.5483C27.0502 30.4629 27.1355 30.4629 27.3915 30.3776C27.5622 30.3776 27.6475 30.2069 27.4768 30.1216C27.3062 30.0363 26.8795 29.695 27.1355 29.439C27.2208 29.3536 27.3062 29.5243 27.4768 29.5243C27.6475 29.5243 27.6475 29.5243 27.8182 29.439C27.9888 29.3536 28.2448 29.3536 28.1595 29.6096C28.1595 29.8656 28.1595 30.1216 28.1595 30.2923C28.1595 30.4629 28.1595 30.7189 27.9888 30.8896C27.6475 31.2309 27.3915 31.3162 27.1355 31.1456ZM28.4155 32.0842C28.3301 32.2549 28.0741 32.3402 27.8182 32.1696C27.5622 32.0842 27.4768 31.8282 27.6475 31.7429C27.8182 31.6576 27.9888 31.5722 27.9035 31.4869C27.8182 31.4016 27.8182 31.3162 27.9035 31.2309C27.9888 31.1456 28.2448 31.3162 28.3301 31.4869C28.5008 31.7429 28.5861 31.9136 28.4155 32.0842ZM29.3541 32.5109C29.3541 32.5962 29.1834 32.5962 29.0128 32.5109C28.8421 32.4255 28.7568 32.3402 28.7568 32.2549C28.7568 32.1696 28.9274 32.1696 29.0981 32.2549C29.2688 32.3402 29.3541 32.5109 29.3541 32.5109ZM33.1087 34.2175C33.1087 34.3882 33.0233 34.5588 33.0233 34.7295C31.7434 33.5348 30.4634 32.4255 29.4394 31.4869C28.8421 30.8896 28.8421 30.2923 28.9275 29.7803C28.9275 29.439 29.0128 29.0976 29.0128 28.7563C29.7808 29.439 30.5487 30.2923 31.402 31.1456C31.7434 31.4869 32.17 31.9136 32.5113 32.2549C33.0233 32.8522 33.194 33.4495 33.1087 34.2175ZM33.7913 35.4121C33.7913 35.2415 33.962 35.2415 34.1326 35.2415C34.3033 35.2415 34.4739 35.3268 34.4739 35.4121C34.4739 35.4974 34.3033 35.5828 34.1326 35.5828C33.962 35.5828 33.7913 35.4974 33.7913 35.4121ZM34.2179 36.3508C34.0473 36.3508 33.8766 36.2654 33.8766 36.1801C33.8766 36.0948 34.0473 36.0094 34.2179 36.0094C34.3886 36.0094 34.5593 36.0948 34.5593 36.1801C34.5593 36.2654 34.3886 36.3508 34.2179 36.3508ZM34.9006 36.3508C34.7299 35.8388 34.6446 35.3268 34.7299 34.7295C34.7299 34.6441 34.7299 34.4735 34.7299 34.3882C35.2419 34.9001 35.7539 35.4121 36.3512 36.0094C36.7779 36.4361 37.2899 37.0334 37.2899 38.1427C37.2899 38.228 37.2899 38.3134 37.2899 38.484C36.5219 37.8014 35.6686 37.1187 34.9006 36.3508ZM38.2285 39.4227C38.2285 39.252 38.3992 39.252 38.5698 39.252C38.7405 39.252 38.9111 39.3373 38.9111 39.4227C38.9111 39.508 38.7405 39.5933 38.5698 39.5933C38.3138 39.6787 38.2285 39.508 38.2285 39.4227ZM38.8258 40.3613C38.6551 40.3613 38.4845 40.276 38.4845 40.1906C38.4845 40.1053 38.6551 40.02 38.8258 40.02C38.9965 40.02 39.1671 40.1053 39.1671 40.1906C39.1671 40.276 38.9965 40.3613 38.8258 40.3613ZM39.8498 40.788C39.4231 40.276 39.0818 39.5933 38.9965 38.74C39.5085 39.252 40.0204 39.764 40.5324 40.276C40.6178 40.3613 40.6177 40.4466 40.7884 40.532L40.8737 40.6173C40.9591 40.7026 41.0444 40.788 41.1297 40.8733C41.3004 41.1293 41.4711 41.4706 41.4711 41.8973C41.4711 42.0679 41.4711 42.2386 41.5564 42.4092L39.8498 40.788ZM44.799 44.8838C44.7136 44.8838 44.7136 44.8838 44.799 44.8838C44.7136 44.9692 44.4576 44.9692 44.2016 44.7132L43.007 43.6039C42.751 43.2625 42.495 42.8359 42.5804 42.3239V42.2386C43.007 42.6652 43.4337 43.0919 43.8603 43.5185L44.7136 44.3718C44.8843 44.6278 44.799 44.7985 44.799 44.8838Z" fill="#FF3300"/>
    <path d="M26.6235 28.7573C26.3675 28.5866 26.1115 28.0746 26.1115 27.7333C26.1115 27.392 25.8555 27.0507 25.6849 26.88C25.5142 26.7094 25.3435 26.7947 25.3435 27.0507C25.3435 27.3067 25.0022 27.4773 24.6609 27.3067L25.1729 27.904L26.7088 29.1839L26.6235 28.7573Z" fill="#FF3300"/>
    <path d="M21.9302 24.4898C22.1009 24.1485 22.6982 24.2338 22.9542 24.3192C23.2102 24.4045 23.6369 24.8312 23.8075 25.0018C23.9782 25.2578 24.3195 25.7698 24.1489 25.8551C23.9782 26.0258 23.8929 25.9405 23.7222 25.5991C23.5515 25.3432 23.2102 24.9165 22.8689 24.9165C22.3569 24.9165 22.1009 25.0872 22.0156 25.3432C22.0156 25.4285 21.7596 24.9165 21.9302 24.4898Z" fill="#FF3300"/>
    <path d="M25.4287 22.0157C25.4287 22.101 25.3434 22.1864 25.1727 22.1864C25.0874 22.1864 24.9167 22.101 24.9167 22.0157C24.9167 21.9304 25.0021 21.845 25.1727 21.845C25.2581 21.845 25.4287 21.9304 25.4287 22.0157Z" fill="#FF3300"/>
    <path d="M48.724 15.275L46.4201 16.299C46.2494 16.3843 45.9081 16.2137 46.1641 15.787L48.5533 11.8618C48.724 11.6058 48.8093 11.4352 48.8947 11.2645C48.8947 11.0938 48.8947 11.0085 48.8947 10.9232C48.98 10.7525 49.1506 10.7525 49.236 10.8378L50.1746 11.6058C50.2599 11.6912 50.3453 11.8618 50.1746 11.9471C50.0893 12.0325 50.004 12.0325 49.8333 12.1178C49.6626 12.2031 49.5773 12.2885 49.4066 12.5445L48.3827 14.3364C48.2973 14.4217 48.3827 14.4217 48.468 14.4217L49.9186 13.7391C50.0893 13.4831 50.5159 12.8858 50.5159 12.8005C50.5159 12.6298 50.5159 12.5445 50.6013 12.4591C50.6866 12.2885 50.8573 12.2885 50.9426 12.3738L51.7106 13.1418C51.7959 13.2271 51.8812 13.3978 51.7106 13.4831C51.6252 13.5684 51.5399 13.4831 51.3692 13.5684C51.1986 13.6538 51.1132 13.8244 50.9426 13.9951L49.5773 15.7017C49.492 15.787 49.5773 15.8724 49.6626 15.787C50.1746 15.4457 51.4546 14.7631 51.6252 14.6777C51.7959 14.5924 51.9666 14.4217 51.9666 14.3364C51.9666 14.1657 51.9666 14.1657 52.0519 14.0804C52.1372 13.9098 52.3079 13.9098 52.3932 14.0804L52.9052 14.6777C52.9905 14.7631 53.0759 14.9337 52.9052 15.0191C52.8199 15.1044 52.7345 15.1044 52.5639 15.1044L47.7854 17.835C47.6147 17.9203 47.188 17.835 47.444 17.4083L48.8093 15.4457C48.8093 15.3604 48.724 15.275 48.724 15.275Z" fill="#FF3300"/>
    <path d="M42.2388 13.3973C42.0681 13.312 42.0681 13.2266 42.1535 13.056C42.2388 12.9706 42.3241 12.9706 42.4948 12.8853C42.5801 12.8 42.7508 12.6293 42.9214 12.3733L44.884 9.38675C45.0547 9.13076 45.14 8.9601 45.14 8.78944C45.14 8.61877 45.14 8.53344 45.14 8.44811C45.2254 8.27745 45.3107 8.27745 45.4814 8.36278L47.7853 9.8134C47.8706 9.8134 47.956 9.98406 47.8706 10.1547C47.7853 10.3254 47.5293 10.752 47.5293 10.752C47.444 10.9227 47.2733 10.9227 47.188 10.9227C47.1027 10.9227 47.1027 10.8374 47.1027 10.6667C47.1027 10.496 47.0173 10.1547 46.7613 9.98406C46.5053 9.8134 46.164 9.55741 45.9934 9.8134C45.8227 9.98407 45.2254 11.008 45.2254 11.008C45.14 11.0934 45.3107 11.264 45.3107 11.3494C45.4814 11.4347 45.652 11.6053 45.7374 11.52C45.8227 11.52 45.9933 11.3494 46.164 11.4347C46.2493 11.52 46.164 11.6907 46.0787 11.8613L45.652 12.4587C45.5667 12.6293 45.396 12.8 45.3107 12.7146C45.14 12.6293 45.2254 12.3733 45.2254 12.288C45.2254 12.1173 44.9694 11.9467 44.7987 11.8613C44.7134 11.8613 44.6281 11.776 44.5427 11.8613C44.3721 12.032 43.6894 13.1413 43.6894 13.1413C43.5188 13.3973 43.6041 13.4826 43.7747 13.6533L44.2014 13.9093C44.4574 14.0799 44.6281 14.1653 44.884 14.0799C45.14 13.9946 45.4814 13.6533 45.652 13.7386C45.7374 13.8239 45.7374 13.9093 45.652 14.0799C45.652 14.0799 45.14 14.7626 45.0547 14.8479C44.9694 15.0186 44.7987 15.0186 44.6281 14.8479L42.2388 13.3973Z" fill="#FF3300"/>
    <path d="M10.8374 30.0372C10.8374 30.2078 10.7521 30.2932 10.5814 30.2932C10.4961 30.2932 10.4108 30.2078 10.2401 30.1225C10.0694 30.0372 9.89877 30.0372 9.64278 29.9518L6.14422 29.5252C5.8029 29.4399 5.63223 29.4399 5.46157 29.5252C5.29091 29.6105 5.20558 29.6958 5.12025 29.6958C4.94959 29.6958 4.86426 29.6105 4.86426 29.4399L5.37624 26.4533C5.37624 26.368 5.46157 26.2826 5.63223 26.2826C5.8029 26.2826 6.31488 26.368 6.31488 26.368C6.48554 26.368 6.57087 26.4533 6.57087 26.5386C6.57087 26.6239 6.48554 26.7093 6.40021 26.7946C6.31488 26.8799 5.97356 27.0506 5.88823 27.3919C5.8029 27.6479 5.71756 28.2452 5.97356 28.2452C6.22955 28.2452 7.42418 28.4159 7.42418 28.4159C7.59484 28.4159 7.59484 28.3306 7.59484 28.2452C7.59484 28.0746 7.68017 27.8186 7.50951 27.7332C7.42418 27.6479 7.25352 27.5626 7.25352 27.3919C7.33885 27.3066 7.50951 27.3066 7.68017 27.3066L8.44815 27.3919C8.61881 27.3919 8.78947 27.4773 8.78947 27.6479C8.78947 27.8186 8.53348 27.8186 8.44815 27.9039C8.36282 27.9892 8.27748 28.1599 8.27748 28.4159C8.27748 28.5012 8.27748 28.5865 8.44815 28.6719C8.61881 28.7572 9.9841 28.8425 9.9841 28.8425C10.2401 28.8425 10.3254 28.7572 10.4108 28.5012L10.4961 28.1599C10.4961 27.8186 10.4961 27.6479 10.3254 27.4773C10.1548 27.3066 9.64278 27.1359 9.72811 26.9653C9.72811 26.8799 9.89877 26.7946 9.9841 26.7946C9.9841 26.7946 10.8374 26.9653 11.0081 26.9653C11.1787 27.0506 11.2641 27.1359 11.2641 27.3919L10.8374 30.0372Z" fill="#FF3300"/>
    <path d="M23.2102 12.6296C23.0395 12.715 22.9542 12.6296 22.8689 12.459C22.8689 12.3736 22.8689 12.2883 22.9542 12.1177C22.9542 11.947 22.8689 11.7763 22.7835 11.435L21.6742 8.10711C21.5036 7.76579 21.4183 7.68046 21.3329 7.5098C21.2476 7.42447 21.0769 7.33914 21.0769 7.25381C20.9916 7.08315 21.0769 6.99781 21.2476 6.91248L23.8928 5.97385C23.9782 5.97385 24.1488 5.97385 24.1488 6.14451C24.2342 6.31517 24.3195 6.82715 24.3195 6.82715C24.4048 6.99781 24.3195 7.16848 24.2342 7.16848C24.1488 7.25381 24.0635 7.16848 23.9782 7.08315C23.8928 6.99781 23.6369 6.82715 23.2955 6.91248C23.0395 6.99781 22.5276 7.25381 22.6129 7.42447C22.6982 7.68046 23.0395 8.78976 23.0395 8.78976C23.1249 8.96042 23.2102 8.87509 23.2955 8.87509C23.4662 8.78976 23.6369 8.78976 23.7222 8.6191C23.7222 8.53377 23.7222 8.27777 23.8928 8.27777C24.0635 8.27777 24.1488 8.36311 24.2342 8.6191L24.4902 9.30174C24.5755 9.4724 24.5755 9.64306 24.4902 9.7284C24.3195 9.81373 24.2342 9.64306 24.1488 9.55773C24.0635 9.4724 23.8075 9.55773 23.6369 9.64307C23.5515 9.64307 23.4662 9.7284 23.4662 9.89906C23.5515 10.0697 23.9782 11.3497 23.9782 11.3497C24.0635 11.6057 24.2342 11.6057 24.4048 11.5203L24.7462 11.435C25.0021 11.3497 25.1728 11.2643 25.2581 11.0084C25.3435 10.7524 25.2581 10.3257 25.4288 10.2404C25.5141 10.2404 25.5995 10.2404 25.6848 10.411C25.6848 10.411 25.9408 11.2643 25.9408 11.435C25.9408 11.6057 25.8555 11.7763 25.6848 11.7763L23.2102 12.6296Z" fill="#FF3300"/>
    <path d="M50.2602 21.0766C50.1748 20.906 50.1748 20.8207 50.3455 20.7353C50.4308 20.7353 50.5161 20.7353 50.6868 20.7353C50.8575 20.7353 51.0281 20.65 51.2841 20.4793L54.356 18.8581C54.6974 18.6874 54.7827 18.6021 54.868 18.5167C54.9533 18.3461 54.9533 18.2607 55.0387 18.1754C55.2093 18.0901 55.2947 18.0901 55.38 18.2607L56.7453 20.8207C56.7453 20.906 56.7453 21.0766 56.66 21.0766C56.4893 21.162 56.0626 21.418 56.0626 21.418C55.892 21.5033 55.8067 21.5033 55.7213 21.418C55.636 21.3326 55.7213 21.2473 55.7213 21.162C55.8067 20.9913 55.892 20.7353 55.7213 20.394C55.5507 20.138 55.38 19.626 55.124 19.7114C54.868 19.7967 53.9294 20.394 53.9294 20.394C53.844 20.4793 53.844 20.5647 53.844 20.65C53.9294 20.8207 54.0147 20.9913 54.1854 20.9913C54.2707 20.9913 54.5267 20.9913 54.5267 21.0766C54.612 21.2473 54.4414 21.3326 54.2707 21.418L53.7587 21.8446C53.588 21.93 53.4174 22.0153 53.3321 21.8446C53.2467 21.674 53.4174 21.5033 53.4174 21.418C53.5027 21.3326 53.4174 21.0766 53.2467 20.906C53.2467 20.8207 53.1614 20.7353 52.9907 20.8207C52.8201 20.906 51.6254 21.5033 51.6254 21.5033C51.3695 21.5886 51.3694 21.8446 51.4548 22.0153L51.6254 22.3566C51.7961 22.6126 51.8814 22.7833 52.0521 22.7833C52.3081 22.8686 52.7347 22.6979 52.9054 22.8686C52.9907 22.9539 52.9054 23.1246 52.7347 23.1246C52.7347 23.1246 51.9668 23.4659 51.7961 23.5512C51.6254 23.6366 51.4548 23.5512 51.3695 23.3806L50.2602 21.0766Z" fill="#FF3300"/>
    <path d="M12.7143 40.8735C12.7996 41.0442 12.7143 41.1295 12.5436 41.2148C12.4583 41.2148 12.3729 41.2148 12.2023 41.2148C12.0316 41.2148 11.861 41.3002 11.605 41.3855L8.27707 42.6655C7.93574 42.7508 7.85041 42.8361 7.67975 43.0068C7.59442 43.0921 7.50909 43.2628 7.42376 43.2628C7.2531 43.3481 7.16777 43.2628 7.08244 43.0921L6.1438 40.6175C6.1438 40.5322 6.1438 40.3615 6.31446 40.3615C6.48512 40.2762 6.99711 40.1055 6.99711 40.1055C7.16777 40.0202 7.2531 40.0202 7.33843 40.1055C7.42376 40.1909 7.33843 40.2762 7.2531 40.3615C7.16777 40.4469 6.99711 40.7882 7.16777 41.1295C7.2531 41.3855 7.42376 41.7268 7.59442 41.6415C7.85041 41.5562 8.87438 41.1295 8.87438 41.1295C9.04504 41.0442 8.95971 40.9589 8.95971 40.8735C8.87438 40.7029 8.78905 40.4469 8.70372 40.4469C8.61839 40.4469 8.3624 40.4469 8.3624 40.2762C8.27707 40.1055 8.44773 40.0202 8.70372 39.9349L9.38636 39.6789C9.55703 39.5936 9.72769 39.5936 9.81302 39.6789C9.89835 39.8496 9.72769 40.0202 9.64236 40.0202C9.55703 40.1055 9.64236 40.3615 9.72769 40.6175C9.72769 40.7029 9.81302 40.7882 9.98368 40.7029C10.1543 40.6175 11.1783 40.2762 11.1783 40.2762C11.4343 40.1909 11.6903 40.1055 11.7756 39.9349C11.861 39.8496 11.9463 39.6789 12.0316 39.6789C12.2023 39.5936 12.2876 39.6789 12.3729 39.8496L12.7143 40.8735Z" fill="#FF3300"/>
    <path d="M53.2466 33.1938C53.2466 33.0231 53.3319 32.9378 53.5026 32.9378C53.5879 32.9378 53.6732 33.0231 53.8439 33.1084C53.9292 33.1938 54.0999 33.1938 54.4412 33.2791L57.9398 33.7057C58.2811 33.7911 58.4518 33.7911 58.6224 33.7057C58.7931 33.6204 58.8784 33.5351 58.9637 33.5351C59.1344 33.5351 59.2197 33.6204 59.2197 33.7911L59.0491 34.9857C59.0491 35.1564 58.9637 35.2417 58.7931 35.1564C58.7078 35.1564 58.6224 34.9857 58.5371 34.9004C58.4518 34.815 58.2811 34.7297 57.9398 34.7297C57.7691 34.6444 54.3559 34.2177 54.3559 34.2177C54.0999 34.2177 54.0146 34.3031 53.9292 34.5591V34.6444C53.9292 34.9857 53.9292 35.1564 54.0999 35.327C54.4412 35.583 54.5266 35.583 54.5266 35.7537C54.5266 35.839 54.3559 36.0097 54.1852 35.9243C54.1852 35.9243 53.3319 35.839 53.1613 35.7537C52.9906 35.6683 52.9053 35.583 52.9053 35.327L53.2466 33.1938Z" fill="#FF3300"/>
    <path d="M14.1652 13.1411C13.9092 12.8851 13.8239 12.7997 13.6532 12.7144C13.4826 12.6291 13.3972 12.6291 13.3119 12.6291C13.1412 12.5437 13.2266 12.3731 13.3119 12.2878L14.1652 11.5198C14.2505 11.4344 14.4212 11.4344 14.5065 11.5198C14.5919 11.6051 14.5065 11.6904 14.5919 11.8611C14.5919 12.0318 14.7625 12.1171 14.9332 12.3731L17.2371 15.1037C17.4931 15.3597 17.5784 15.445 17.7491 15.5303C17.9198 15.6156 18.0051 15.6156 18.0904 15.6156C18.2611 15.701 18.1758 15.8716 18.0904 15.957L17.2371 16.8103C17.1518 16.8956 16.9811 16.9809 16.8958 16.8103C16.8105 16.7249 16.8958 16.6396 16.8105 16.469C16.7251 16.2983 16.6398 16.213 16.3838 15.957L14.1652 13.1411Z" fill="#FF3300"/>
    <path d="M9.21576 19.4561C8.95977 19.2854 8.78911 19.2001 8.61845 19.2001C8.44778 19.2001 8.36245 19.2001 8.27712 19.2001C8.10646 19.1147 8.10646 19.0294 8.19179 18.8587L8.78911 17.8348C8.87444 17.6641 8.95977 17.6641 9.13043 17.7494C9.21576 17.8348 9.21576 17.9201 9.30109 18.0908C9.38642 18.1761 9.55708 18.3468 9.81307 18.5174L12.7996 20.3094C13.0556 20.48 13.2263 20.48 13.397 20.48C13.5676 20.48 13.653 20.3947 13.7383 20.48C13.9089 20.5654 13.9089 20.6507 13.8236 20.8213L13.2263 21.8453C13.141 22.016 13.0556 22.016 12.885 21.9306C12.7996 21.8453 12.7996 21.76 12.7143 21.6747C12.629 21.5893 12.4583 21.504 12.2023 21.3333L9.21576 19.4561Z" fill="#FF3300"/>
    <path d="M7.33862 35.3276L9.81321 34.9862C10.1545 34.9009 10.3252 34.9009 10.4105 34.8156C10.5812 34.7302 10.5812 34.6449 10.6665 34.5596C10.8372 34.4742 10.9225 34.5596 10.9225 34.7302L11.0932 35.6689C11.0932 35.8395 11.0932 35.9249 10.9225 35.9249C10.8372 35.9249 10.7518 35.8395 10.5812 35.7542C10.4105 35.7542 10.3252 35.6689 9.89854 35.7542L6.39998 36.2662C6.05866 36.2662 5.888 36.3515 5.80267 36.4369C5.54668 36.6075 5.54668 36.6928 5.46135 36.6928C5.29068 36.7782 5.20535 36.6928 5.12002 36.5222L4.94936 35.1569C4.94936 34.9862 5.03469 34.9009 5.20535 34.8156C5.37601 34.7302 7.85061 34.0476 8.19193 33.9623C8.44792 33.8769 8.27726 33.7916 8.19193 33.7916C8.02127 33.7916 5.37601 33.109 5.12002 33.0236C4.86403 32.9383 4.7787 32.6823 4.86403 32.597V31.573C4.86403 31.4023 4.94936 31.317 5.12002 31.317C5.20535 31.317 5.29068 31.4023 5.46135 31.4877C5.63201 31.573 5.80267 31.573 6.14399 31.4877L9.64255 31.4023C9.98387 31.317 10.1545 31.317 10.3252 31.2317C10.4959 31.1463 10.4959 31.061 10.5812 30.9757C10.7518 30.8903 10.8372 31.061 10.8372 31.1463V32.2556C10.8372 32.4263 10.8372 32.5116 10.5812 32.5116C10.4959 32.5116 10.4105 32.4263 10.2399 32.341C10.0692 32.2556 9.98387 32.2556 9.55722 32.341L7.08263 32.4263C6.91197 32.4263 6.82664 32.597 7.16796 32.597C7.50928 32.6823 10.4105 33.2796 10.5812 33.3649C10.7518 33.4503 10.9225 33.4503 10.9225 33.5356C10.9225 33.7063 10.9225 33.7063 10.6665 33.7916C10.3252 33.9623 7.50928 34.9009 7.33862 34.9862C7.16796 35.1569 7.08263 35.3276 7.33862 35.3276Z" fill="#FF3300"/>
    <path d="M42.8365 51.6251L44.6284 54.697C44.7991 54.953 44.8844 55.1236 45.0551 55.2089C45.2257 55.2943 45.3111 55.2943 45.3964 55.3796C45.4817 55.5503 45.4817 55.6356 45.3111 55.7209L44.2018 56.3182C44.1164 56.4036 43.9458 56.4036 43.8604 56.2329C43.8604 56.1476 43.8604 56.0623 43.8604 55.8916C43.8604 55.7209 43.7751 55.6356 43.6044 55.2943C43.5191 55.1236 41.9832 52.4784 41.9832 52.4784C41.6418 51.8811 41.5565 50.7718 42.3245 50.3451C43.0925 49.8331 43.6898 50.1744 43.8604 50.4304C44.0311 50.7718 44.0311 51.1131 43.6898 51.2837C43.4338 51.4544 43.0925 51.3691 42.9218 51.1131C42.8365 50.9424 42.6658 50.8571 42.5805 50.9424C42.5805 51.0278 42.6658 51.2837 42.8365 51.6251Z" fill="#FF3300"/>
    <path d="M58.6223 30.5493C58.6223 29.7813 57.257 29.44 55.977 29.5253C54.6118 29.5253 53.8438 29.952 53.8438 30.6346C53.8438 31.1466 54.0998 31.2319 54.7824 31.2319C55.1237 31.2319 55.2944 31.1466 55.3797 30.9759C55.4651 30.8053 55.5504 30.8053 55.6357 30.8053C55.7211 30.8053 55.8064 30.8906 55.8064 31.0613C55.8064 31.2319 55.8064 31.6586 55.8064 31.9146C55.8064 32.3412 55.3797 32.2559 55.2091 32.2559C55.0384 32.2559 54.6971 32.2559 54.5264 32.2559C54.2704 32.2559 54.0998 32.2559 54.0144 32.3412C53.9291 32.4265 53.8438 32.4265 53.6731 32.4265C53.5025 32.4265 53.4171 32.2559 53.3318 32.1706C53.0758 31.8292 52.9905 31.3173 52.9905 30.8906C52.9905 29.7813 54.0998 28.5013 55.977 28.5013C56.745 28.5013 57.257 28.5867 57.769 28.8427C58.6223 29.2693 59.1343 29.8666 59.1343 30.6346C59.1343 30.9759 59.1343 31.2319 59.0489 31.4879C58.9636 31.6586 58.9636 31.7439 58.9636 31.9146C58.9636 32.0852 58.793 32.2559 58.6223 32.2559C58.1956 32.2559 57.8543 32.2559 57.6837 32.2559C57.513 32.2559 57.257 32.1706 57.257 31.9999C57.257 31.8292 57.3423 31.7439 57.5983 31.6586C57.9397 31.4026 58.7076 31.3172 58.6223 30.5493Z" fill="#FF3300"/>
    <path d="M48.4681 47.1024L51.284 49.7476C51.54 50.0036 51.3693 50.2596 51.284 50.345C50.8574 50.7716 49.7481 50.4303 48.8094 49.577C47.6148 48.4677 47.3588 47.6144 47.9561 47.0171C48.0414 46.8464 48.2121 46.8464 48.4681 47.1024ZM52.7346 49.577C52.82 49.4916 52.9053 49.321 52.7346 49.2357C52.6493 49.1503 52.564 49.1503 52.3933 49.1503C52.2226 49.065 52.052 48.8943 51.796 48.6383L49.2361 46.3344C48.9801 46.1637 48.8094 45.9931 48.8094 45.8224C48.7241 45.6518 48.7241 45.5664 48.6388 45.4811C48.5534 45.3104 48.3828 45.3958 48.2974 45.4811L47.4441 46.5051C46.9321 47.0171 46.5908 47.6997 46.6762 48.297C46.7615 48.8943 47.1028 49.6623 47.8708 50.345C48.6388 51.1129 49.7481 51.3689 50.6014 51.1983C51.028 51.1129 51.54 50.7716 51.9667 50.2596L52.7346 49.577Z" fill="#FF3300"/>
    <path d="M10.9226 24.6614L7.25338 23.3815C6.91205 23.2961 6.99738 22.9548 6.99738 22.8695C7.16805 22.2722 8.36267 22.1868 9.5573 22.5282C11.1786 23.0401 11.6906 23.7228 11.4346 24.4908C11.3492 24.7468 11.2639 24.7468 10.9226 24.6614ZM5.97342 24.1494C5.88809 24.3201 5.97342 24.4054 6.14408 24.4908C6.22941 24.4908 6.31474 24.4908 6.4854 24.4908C6.65606 24.4908 6.99738 24.4054 7.25338 24.5761L10.4959 25.7707C10.8373 25.8561 11.0079 25.9414 11.0933 26.0267C11.1786 26.112 11.2639 26.1974 11.3492 26.2827C11.5199 26.368 11.6052 26.2827 11.6906 26.112L12.0319 24.8321C12.2879 24.1494 12.2879 23.4668 11.9466 22.9548C11.6052 22.4428 11.0079 21.7602 10.0693 21.5042C9.04532 21.1629 7.85069 21.3335 7.16805 21.9308C6.82672 22.1868 6.4854 22.6988 6.31474 23.2961L5.97342 24.1494Z" fill="#FF3300"/>
    <path d="M40.532 54.6125C41.044 56.0631 41.2147 57.0017 40.532 57.2577C39.9347 57.5137 39.4227 56.8311 38.8254 55.3804C38.3988 54.1858 38.2281 53.0765 38.9107 52.8205C39.4227 52.4792 39.9347 52.9058 40.532 54.6125ZM41.7267 54.2711C41.3853 53.3325 40.9587 52.7352 40.276 52.2232C39.6787 51.8819 39.1667 51.8819 38.6548 52.0525C38.1428 52.2232 37.7161 52.7352 37.4601 53.3325C37.2041 54.1005 37.2895 54.7831 37.6308 55.7218C37.9721 56.6604 38.3988 57.2577 38.9961 57.6844C39.5081 58.0257 40.1054 58.111 40.7027 57.855C41.2147 57.6844 41.6413 57.1724 41.812 56.5751C42.068 55.8924 42.068 55.1244 41.7267 54.2711Z" fill="#FF3300"/>
    <path d="M12.032 45.6523C10.7521 46.5056 9.89877 46.8469 9.47212 46.2496C9.13079 45.7377 9.55745 45.055 10.9227 44.1164C11.9467 43.4337 13.056 43.0071 13.4827 43.5191C13.824 44.031 13.568 44.6284 12.032 45.6523ZM12.7147 46.6763C13.568 46.1643 13.9946 45.567 14.2506 44.799C14.5066 44.2017 14.4213 43.6897 14.08 43.1777C13.7386 42.7511 13.2267 42.4951 12.6293 42.4098C11.8614 42.3244 11.0934 42.5804 10.3254 43.0924C9.55745 43.6044 9.04546 44.287 8.78947 44.9697C8.53348 45.567 8.61881 46.1643 8.96013 46.591C9.30145 47.0176 9.81344 47.3589 10.4108 47.3589C11.0934 47.4443 11.8614 47.1883 12.7147 46.6763Z" fill="#FF3300"/>
    <path d="M33.0233 57.7692C32.938 57.2573 32.8527 56.7453 32.7674 55.4653C32.5967 53.7587 33.1087 53.0761 34.3033 52.9907C35.4979 52.9054 36.2659 53.588 36.3512 55.2093L36.6072 57.5986C36.6072 57.9399 36.6926 58.1106 36.7779 58.2812C36.8632 58.4519 36.9485 58.4519 37.0339 58.5372C37.1192 58.7079 36.9485 58.7932 36.8632 58.7932L35.5833 58.9639C35.4126 58.9639 35.3273 58.9639 35.3273 58.7079C35.3273 58.6225 35.4126 58.5372 35.4979 58.3666C35.4979 58.1959 35.5833 58.0252 35.5833 57.5132C35.5833 57.0013 35.4126 55.892 35.4126 55.4653C35.2419 53.9294 34.9859 53.588 34.3033 53.6734C33.706 53.7587 33.45 54.1854 33.6207 55.38C33.7913 56.7453 33.962 57.9399 33.962 57.9399C33.962 58.2812 34.0473 58.4519 34.1326 58.5372C34.218 58.7079 34.3033 58.7079 34.3886 58.7932C34.474 58.9639 34.3033 59.0492 34.218 59.0492L33.3647 59.1345C33.194 59.1345 33.1087 59.1345 33.1087 58.8785C33.1087 58.7932 33.194 58.7079 33.2793 58.5372C33.1087 58.4519 33.1087 58.2812 33.0233 57.7692Z" fill="#FF3300"/>
    <path d="M15.4451 16.8109C15.4451 16.6402 15.5305 16.4696 15.6158 16.4696C15.7865 16.4696 15.8718 16.6402 15.9571 16.7256C16.1278 17.1522 16.2131 17.9202 15.7865 18.4322C15.5305 18.8588 15.0185 19.0295 14.5065 19.1148C13.7385 19.2002 12.8852 18.9442 12.0319 18.2615C11.5199 17.8349 11.0933 17.3229 10.7519 16.8109C10.3253 15.9576 10.3253 15.1043 10.8373 14.507C11.0079 14.3363 11.2639 14.1656 11.4346 14.0803C11.6053 13.995 11.6906 13.8243 11.7759 13.6537C11.8612 13.483 12.0319 13.3977 12.2026 13.483L12.9705 14.251C13.1412 14.4216 13.2265 14.5923 13.1412 14.6776C13.0559 14.8483 12.7999 14.763 12.5439 14.6776C12.0319 14.507 11.6906 14.5923 11.5199 14.763C11.0933 15.3603 11.7759 16.3842 12.7999 17.1522C13.9945 18.0909 14.9331 18.3469 15.3598 17.7495C15.5305 17.4935 15.4451 16.9816 15.4451 16.8109Z" fill="#FF3300"/>
    <path d="M52.2226 17.9201C52.2226 18.1761 52.0519 18.4321 51.7959 18.4321C51.5399 18.4321 51.2839 18.2614 51.2839 18.0054C51.2839 17.7494 51.4546 17.4935 51.7106 17.4935C52.0519 17.4081 52.2226 17.6641 52.2226 17.9201Z" fill="#FF3300"/>
    <path d="M46.6762 51.5401C46.6762 51.7961 46.5055 52.0521 46.2495 52.0521C45.9935 52.0521 45.7375 51.8814 45.7375 51.6254C45.7375 51.3695 45.9082 51.1135 46.1642 51.1135C46.5055 51.1135 46.6762 51.2841 46.6762 51.5401Z" fill="#FF3300"/>
    <path d="M14.5917 48.3829C14.5917 48.6389 14.4211 48.8949 14.1651 48.8949C13.9091 48.8949 13.6531 48.7242 13.6531 48.4682C13.6531 48.2122 13.8237 47.9562 14.0797 47.9562C14.4211 47.8709 14.5917 48.1269 14.5917 48.3829Z" fill="#FF3300"/>
    <path d="M9.04508 37.9725C9.04508 38.2285 8.87442 38.4845 8.61843 38.4845C8.36244 38.4845 8.10645 38.3139 8.10645 38.0579C8.10645 37.8019 8.27711 37.5459 8.5331 37.5459C8.78909 37.4606 8.95975 37.7165 9.04508 37.9725Z" fill="#FF3300"/>
    <path d="M19.1997 49.0653C19.285 49.1507 19.3703 49.3213 19.1997 49.4066C19.1143 49.492 19.029 49.492 18.8584 49.5773C18.6877 49.6626 18.6877 49.748 18.4317 50.004L16.2131 52.6492C15.9571 52.9052 15.8718 53.0759 15.8718 53.1612C15.7865 53.3319 15.8718 53.4172 15.7864 53.5025C15.7011 53.6732 15.5305 53.6732 15.4451 53.5025L14.5065 52.9052C14.4212 52.8199 14.3358 52.6492 14.5065 52.5639C14.5918 52.4785 14.6772 52.4785 14.8478 52.4785C15.0185 52.3932 15.1038 52.3079 15.3598 52.0519C15.5305 51.8812 17.6637 49.3213 17.6637 49.3213C17.8344 49.1506 17.7491 48.98 17.5784 48.8093L17.4077 48.6387C17.1517 48.468 17.0664 48.2973 16.8104 48.3827C16.4691 48.468 16.3838 48.6387 16.2131 48.468C16.1278 48.3827 16.1278 48.212 16.2131 48.1267C16.2131 48.1267 16.7251 47.444 16.8957 47.3587C17.0664 47.2734 17.2371 47.2734 17.3224 47.3587L19.1997 49.0653Z" fill="#FF3300"/>
    <path d="M20.5648 51.4551C20.6502 51.5405 21.2475 51.9671 21.4181 52.0525C21.5888 52.1378 21.7595 52.0525 21.7595 52.0525C22.0155 51.7965 22.1008 51.7111 22.1861 51.5405C22.2715 51.3698 22.1861 51.1992 22.2715 51.1138C22.3568 50.9432 22.4421 50.9432 22.6128 51.1138L23.3808 51.4551C23.5514 51.5405 23.6367 51.6258 23.5514 51.7965C23.4661 51.8818 23.2954 51.9671 23.0394 52.1378L19.1142 55.807C18.9436 55.9777 18.7729 55.9777 18.6876 55.9777C18.6022 55.8923 18.5169 55.807 18.6022 55.6363C18.6876 55.4657 19.6262 50.6018 19.7115 50.4312C19.7969 50.2605 19.7969 50.0899 19.7115 50.0045C19.6262 49.8339 19.6262 49.7485 19.7115 49.6632C19.7969 49.4925 19.9675 49.4925 20.0529 49.5779L20.9915 50.1752C21.1622 50.2605 21.2475 50.3458 21.1622 50.5165C21.0768 50.6872 20.9062 50.6018 20.8208 50.6872C20.7355 50.7725 20.7355 50.8578 20.6502 51.1992C20.4795 51.1992 20.4795 51.3698 20.5648 51.4551ZM20.9915 52.8204C21.0768 52.7351 21.0768 52.7351 20.9915 52.6498L20.3942 52.2231C20.3089 52.2231 20.2235 52.2231 20.2235 52.3084L19.7969 54.0151C19.7969 54.1004 19.7969 54.1004 19.8822 54.1004L20.9915 52.8204Z" fill="#FF3300"/>
    <path d="M53.2465 39.5936C53.2465 39.5082 53.5879 38.8256 53.5879 38.6549C53.6732 38.4843 53.5025 38.3136 53.5025 38.3136C53.2465 38.1429 53.0759 38.0576 52.9052 38.0576C52.7346 38.0576 52.5639 38.1429 52.4786 38.0576C52.3079 38.0576 52.3079 37.9723 52.3932 37.7163L52.5639 36.9483C52.5639 36.7776 52.6492 36.6923 52.8199 36.7776C52.9052 36.7776 52.9906 37.0336 53.2465 37.2043L57.6837 40.2762C57.8544 40.4469 57.9397 40.5322 57.9397 40.6175C57.9397 40.7029 57.7691 40.7882 57.5984 40.7882C57.4277 40.7882 52.4786 40.7882 52.2226 40.7882C52.0519 40.7882 51.8813 40.7882 51.7959 40.8735C51.6253 40.9589 51.5399 41.0442 51.4546 40.9589C51.2839 40.8735 51.2839 40.7882 51.2839 40.6175L51.7106 39.5936C51.7959 39.4229 51.7959 39.3376 51.9666 39.3376C52.1372 39.3376 52.0519 39.5936 52.2226 39.6789C52.3932 39.7642 52.3932 39.6789 52.7346 39.7642C53.0759 39.7642 53.1612 39.6789 53.2465 39.5936ZM54.5265 38.9109C54.4412 38.8256 54.4412 38.9109 54.3558 38.9109L54.0145 39.5936C54.0145 39.6789 54.0145 39.7642 54.0999 39.7642L55.8065 39.8496C55.8918 39.8496 55.8918 39.8496 55.8065 39.7642L54.5265 38.9109Z" fill="#FF3300"/>
    <path d="M27.9034 57.0864C28.074 56.0624 28.6713 55.8917 28.842 55.8917C29.0126 55.8064 29.0126 55.7211 28.9273 55.6357C28.9273 55.5504 28.5007 54.0998 28.4153 53.9291C28.33 53.6731 28.2447 53.5025 28.074 53.3318C27.9887 53.2465 27.9034 53.1611 27.9034 52.9905C27.9034 52.9052 27.9887 52.8198 28.074 52.9052C28.2447 52.9052 28.6713 52.9905 28.842 53.0758C29.0126 53.0758 29.098 53.1611 29.1833 53.3318C29.2686 53.4171 29.7806 55.2944 29.9513 55.5504C30.1219 55.8064 30.2073 55.8064 30.2073 55.6357C30.2073 55.4651 30.3779 54.4411 30.3779 54.4411C30.4633 54.0998 30.4633 53.9291 30.3779 53.7585C30.2926 53.5878 30.2073 53.5025 30.2073 53.4171C30.2073 53.2465 30.2926 53.1611 30.4633 53.1611L31.6579 53.2465C31.8286 53.2465 31.9139 53.3318 31.8286 53.5025C31.8286 53.5878 31.6579 53.6731 31.5726 53.7585C31.4872 53.8438 31.4019 54.0145 31.4019 54.3558L31.1459 58.025C31.0606 58.3663 31.1459 58.537 31.1459 58.7076C31.2312 58.8783 31.3166 58.9636 31.3166 59.049C31.3166 59.2196 31.2312 59.305 31.0606 59.305L29.354 59.1343C28.5007 58.9636 27.7327 58.1103 27.9034 57.0864ZM29.9513 56.2331C29.6953 56.2331 29.1833 56.4037 29.098 57.0864C29.0126 57.8543 29.4393 58.025 29.7806 58.1103C29.9513 58.1103 30.0366 58.025 30.0366 57.8543C30.0366 57.6837 30.2073 56.489 30.2073 56.489C30.1219 56.3184 30.1219 56.2331 29.9513 56.2331Z" fill="#FF3300"/>
    <path d="M51.2841 31.9994C51.2841 21.3331 42.6657 12.7147 31.9993 12.7147C21.333 12.7147 12.7146 21.3331 12.7146 31.9994C12.7146 42.6657 21.333 51.2841 31.9993 51.2841C42.6657 51.2841 51.2841 42.6657 51.2841 31.9994ZM31.9993 50.6868C21.6743 50.6868 13.3119 42.3244 13.3119 31.9994C13.3119 21.6744 21.6743 13.312 31.9993 13.312C42.3243 13.312 50.6868 21.6744 50.6868 31.9994C50.6868 42.3244 42.3243 50.6868 31.9993 50.6868Z" fill="#FF3300"/>
    <path d="M2.81631 31.9991C2.81631 15.8716 15.8719 2.81603 31.9994 2.81603C48.1269 2.81603 61.1825 15.8716 61.1825 31.9991C61.1825 48.1266 48.1269 61.1822 31.9994 61.1822C15.8719 61.1822 2.81631 48.1266 2.81631 31.9991ZM31.9994 61.7795C48.4682 61.7795 61.7798 48.3826 61.7798 31.9991C61.7798 15.5303 48.3829 2.21872 31.9994 2.21872C15.5306 2.21872 2.21899 15.5303 2.21899 31.9991C2.21899 48.4679 15.5306 61.7795 31.9994 61.7795Z" fill="#FF3300"/>
    <path d="M31.7434 0.000381231C14.1653 0.0857119 -0.0849494 14.5919 0.000381231 32.2554C0.0857119 40.7884 3.41361 48.8095 9.55742 54.7827C15.6159 60.7558 23.7223 64.0837 32.2554 63.9984C40.7884 63.9131 48.8095 60.5852 54.7827 54.4414C60.7558 48.3829 64.0837 40.2765 63.9984 31.7434C63.9131 14.1653 49.4068 -0.0849495 31.7434 0.000381231ZM62.6331 31.8287C62.7184 40.0205 59.5612 47.7002 53.844 53.5027C48.1269 59.3052 40.4471 62.5478 32.2554 62.6331C24.0636 62.7184 16.3839 59.5612 10.5814 53.844C4.69357 48.0416 1.451 40.3618 1.36567 32.17C1.28034 15.3599 14.9332 1.53633 31.8287 1.36567C48.6389 1.28034 62.4624 14.9333 62.6331 31.8287Z" fill="#FF3300"/>
    <path d="M28.4153 9.64309C28.4153 9.64309 29.2686 8.87511 30.2926 8.70445C30.6339 8.70445 30.6339 8.78978 30.7193 8.78978C30.8899 9.04577 30.7193 9.81375 30.3779 10.4111L30.2073 10.7524H30.6339C30.9752 10.7524 31.3166 10.7524 31.6579 10.6671H31.9992H32.3405C32.7672 10.6671 33.2792 10.6671 33.7058 10.7524H34.1325L33.9618 10.4111C33.6205 9.81375 33.4498 9.04577 33.6205 8.78978C33.6205 8.78978 33.7058 8.61912 34.0472 8.70445C35.0711 8.78978 35.9244 9.64309 35.9244 9.64309L36.1804 9.89908L36.2657 9.55776C36.6924 8.2778 36.6924 6.74184 36.6924 6.65651V6.31519L36.3511 6.40052C34.5591 7.08317 33.9618 6.82718 33.7912 6.65651C33.6205 6.48585 33.6205 6.40052 33.6205 6.31519C33.7058 5.97387 34.0472 5.37655 34.1325 5.12056L34.3031 4.77924H33.9618H33.7058C33.1938 4.77924 32.6819 4.69391 32.0845 4.69391H31.7432C31.2312 4.69391 30.7193 4.69391 30.2073 4.77924H29.8659L29.9513 5.12056C30.1219 5.37655 30.4633 6.14453 30.4633 6.48585C30.4633 6.57118 30.4633 6.65651 30.3779 6.74184C30.2073 6.91251 29.6953 7.08317 27.7327 6.48585L27.3914 6.40052V6.74184C27.3914 6.82717 27.562 8.53379 27.9033 9.64309L27.9887 9.98441L28.4153 9.64309ZM27.6474 6.91251C29.1833 7.42449 30.2073 7.50982 30.7193 7.1685C30.8899 6.99784 30.9752 6.74184 30.9752 6.48585C30.8899 6.0592 30.4633 5.12056 30.3779 4.9499L30.2073 5.29122C30.7193 5.20589 31.1459 5.20589 31.6579 5.20589H31.9992C32.5112 5.20589 33.0232 5.20589 33.5352 5.29122H33.7912L33.6205 4.9499C33.5352 5.03523 33.1085 5.80321 33.0232 6.31519C33.0232 6.57118 33.1085 6.91251 33.3645 7.08317C33.8765 7.50982 34.9005 7.42449 36.3511 6.91251L36.0098 6.65651C36.0098 6.65651 36.0098 8.19247 35.5831 9.38709L35.9244 9.30176C35.9244 9.30176 34.9858 8.36313 33.7912 8.2778C33.2792 8.19247 33.1085 8.44846 32.9379 8.61912C32.5965 9.1311 33.0232 10.2404 33.2792 10.7524L33.5352 10.4111C33.1085 10.4111 32.6819 10.3257 32.1699 10.3257H31.8286H31.4872C31.1459 10.3257 30.8046 10.3257 30.4633 10.4111L30.7193 10.7524C30.7193 10.6671 31.4872 9.30176 31.0606 8.61912C30.9752 8.44846 30.7193 8.2778 30.2073 8.2778C29.0126 8.44846 28.074 9.30176 28.074 9.30176L28.4153 9.38709C28.074 8.2778 27.9033 6.65651 27.9033 6.57118L27.6474 6.91251Z" fill="#FF3300"/>
    <path d="M40.1059 8.44845L39.2526 10.7524C39.082 11.0937 39.082 11.2644 39.082 11.3497C39.082 11.5204 39.1673 11.6057 39.082 11.691C39.082 11.8617 38.9113 11.8617 38.7406 11.8617L37.8873 11.6057C37.7167 11.5204 37.6313 11.435 37.802 11.2644C37.8873 11.179 37.9727 11.179 38.058 11.0084C38.1433 10.923 38.2287 10.7524 38.3993 10.4111L39.6793 7.08316C39.8499 6.74184 39.8499 6.57118 39.8499 6.48585C39.8499 6.31519 39.7646 6.22985 39.7646 6.14452C39.8499 5.97386 40.0206 5.97386 40.1059 6.05919L40.9592 6.31519C41.2152 6.40052 41.2152 6.57118 41.2152 6.99783L41.3859 9.89907C41.3859 9.98441 41.4712 10.0697 41.5566 9.89907L42.3245 8.10713C42.4952 7.85114 42.4952 7.68048 42.4952 7.50982C42.4952 7.33915 42.4099 7.25382 42.4952 7.16849C42.5805 6.99783 42.6659 6.99783 42.8365 7.08316L43.6898 7.50982C43.8605 7.59515 43.8605 7.68048 43.7751 7.85114C43.6898 7.93647 43.6045 7.93647 43.5192 8.0218C43.4338 8.10713 43.2632 8.27779 43.1778 8.53378L41.4712 12.459C41.3006 12.8856 41.1299 12.8856 40.8739 12.715C40.7032 12.6297 40.5326 12.6297 40.5326 12.3737L40.2766 8.53378C40.2766 8.44845 40.1913 8.36312 40.1059 8.44845Z" fill="#FF3300"/>
    <path d="M55.7214 24.4052L53.3321 25.0025C52.9908 25.0879 52.8201 25.1732 52.7348 25.2585C52.5641 25.3439 52.5641 25.4292 52.4788 25.5145C52.3081 25.5998 52.2228 25.5145 52.1375 25.3439L51.7961 24.4905C51.7961 24.3199 51.7961 24.2346 51.9668 24.2346C52.0521 24.2346 52.1375 24.3199 52.3081 24.3199C52.4788 24.3199 52.6494 24.3199 52.9908 24.2346L56.404 23.2959C56.7453 23.2106 56.916 23.1253 57.0013 23.0399C57.172 22.9546 57.172 22.8693 57.2573 22.7839C57.428 22.6986 57.5133 22.7839 57.5986 22.9546L57.8546 23.7226C57.9399 23.9786 57.7693 24.0639 57.5133 24.3199L55.2947 26.1972C55.2094 26.2825 55.2094 26.3678 55.38 26.3678L57.172 25.9412C57.5133 25.8558 57.684 25.8558 57.7693 25.7705C57.9399 25.6852 57.9399 25.5998 58.0253 25.5145C58.1959 25.4292 58.2813 25.5145 58.2813 25.6852L58.4519 26.6238C58.4519 26.7945 58.4519 26.8798 58.2813 26.8798C58.1959 26.8798 58.1106 26.7945 57.9399 26.7945C57.7693 26.7945 57.5986 26.7945 57.2573 26.8798L53.1614 27.9038C52.7348 27.9891 52.6494 27.9038 52.5641 27.5624C52.4788 27.3065 52.4788 27.2211 52.5641 27.0505L55.4654 24.5759C55.8067 24.4905 55.8067 24.4052 55.7214 24.4052Z" fill="#FF3300"/>
    <path d="M53.6731 44.2012L51.5398 42.9212C51.2838 42.7505 51.1985 42.6652 51.0278 42.6652C50.8572 42.6652 50.7719 42.6652 50.6865 42.6652C50.5159 42.5799 50.5159 42.4945 50.6012 42.3239L51.0278 41.4706C51.1132 41.2999 51.1985 41.2999 51.3692 41.3852C51.4545 41.4706 51.4545 41.5559 51.5398 41.7266C51.6252 41.8119 51.7105 41.9826 52.0518 42.1532L55.1237 44.0305C55.3797 44.2012 55.5504 44.2865 55.721 44.2865C55.8917 44.2865 55.977 44.2865 56.0624 44.2865C56.233 44.3718 56.233 44.4571 56.1477 44.6278L55.721 45.3105C55.5504 45.5664 55.3797 45.4811 55.0384 45.4811L52.2225 45.2251C52.1372 45.2251 52.0518 45.3105 52.1371 45.3958L53.7584 46.4198C54.0144 46.5904 54.1851 46.6757 54.3558 46.6757C54.5264 46.6757 54.6117 46.6757 54.6971 46.6757C54.8677 46.7611 54.8677 46.9317 54.6971 47.0171L54.1851 47.785C54.1851 47.9557 54.0144 47.9557 53.8438 47.8704C53.7584 47.785 53.7584 47.6997 53.6731 47.5291C53.5878 47.4437 53.5024 47.2731 53.1611 47.1024L49.4919 44.7985C49.0652 44.5425 49.2359 44.4571 49.4066 44.2012C49.4919 44.0305 49.5772 43.8598 49.7479 43.8598L53.5878 44.2865C53.6731 44.2865 53.7584 44.2012 53.6731 44.2012Z" fill="#FF3300"/>
    <path d="M25.2582 55.9768L26.0262 53.6729C26.1115 53.3316 26.1969 53.2463 26.1969 53.0756C26.1969 52.9049 26.1115 52.8196 26.1115 52.7343C26.1115 52.5636 26.2822 52.4783 26.4529 52.5636L27.3062 52.8196C27.4768 52.9049 27.5622 52.9903 27.4768 53.1609C27.4768 53.2463 27.3062 53.2463 27.2208 53.4169C27.1355 53.5022 27.0502 53.6729 26.9648 53.9289L25.8555 57.3421C25.5996 57.5981 25.5996 57.7688 25.5996 57.9394C25.5996 58.1101 25.6849 58.1954 25.6849 58.2808C25.6849 58.4514 25.5142 58.5368 25.3436 58.4514L24.5756 58.1954C24.3196 58.1101 24.3196 57.9394 24.2343 57.5981L23.8929 54.6969C23.8929 54.6115 23.8076 54.5262 23.7223 54.6969L23.125 56.4888C22.9543 56.8301 22.9543 57.0008 22.9543 57.0861C22.9543 57.2568 23.0396 57.3421 23.0396 57.4275C23.0396 57.5981 22.869 57.5981 22.6983 57.5128L21.845 57.0861C21.6743 57.0861 21.589 57.0008 21.6743 56.8301C21.7597 56.7448 21.845 56.7448 21.9303 56.5741C22.0157 56.4888 22.101 56.3182 22.2717 55.9768L23.637 51.881C23.8076 51.4543 23.8929 51.5396 24.2343 51.625C24.4049 51.7103 24.5756 51.7103 24.6609 51.9663L25.0876 55.8062C25.0876 55.9768 25.1729 56.0622 25.2582 55.9768Z" fill="#FF3300"/>
    <path d="M17.9198 11.5195L19.1997 13.5674C19.3704 13.8234 19.4557 13.9941 19.6264 14.0794C19.7971 14.1648 19.8824 14.1648 19.9677 14.2501C20.053 14.4208 20.053 14.5061 19.8824 14.5914L19.1144 15.1887C18.9438 15.2741 18.8584 15.2741 18.7731 15.1034C18.7731 15.0181 18.7731 14.9327 18.7731 14.7621C18.7731 14.5914 18.6878 14.4208 18.5171 14.1648L16.5545 11.0929C16.3838 10.8369 16.2985 10.6662 16.1278 10.5809C15.9572 10.4955 15.8718 10.4955 15.7865 10.4102C15.7012 10.2395 15.7012 10.1542 15.8718 10.0689L16.5545 9.5569C16.8105 9.38624 16.8958 9.5569 17.2371 9.72756L19.6264 11.2635C19.7117 11.3488 19.7971 11.2635 19.7117 11.1782L18.7731 9.5569C18.6024 9.30091 18.5171 9.13025 18.4318 9.04492C18.2611 8.95959 18.1758 8.95959 18.0904 8.87426C18.0051 8.7036 18.0051 8.61827 18.1758 8.53294L18.9438 8.10628C19.1144 8.02095 19.1997 8.02095 19.2851 8.19161C19.2851 8.27694 19.2851 8.36227 19.2851 8.53294C19.2851 8.7036 19.3704 8.87426 19.5411 9.13025L21.7597 12.7995C22.0157 13.2261 21.9303 13.2261 21.6743 13.3968C21.5037 13.4821 21.333 13.5674 21.1623 13.4821L18.0051 11.4342C17.9198 11.3488 17.8345 11.4342 17.9198 11.5195Z" fill="#FF3300"/>
</svg>
