<svg width="1024" height="1024" viewBox="0 0 1024 1024" fill="none" xmlns="http://www.w3.org/2000/svg">
<path d="M347.28 251.52L76.2402 704C70.652 713.677 67.6951 724.649 67.6638 735.824C67.6325 746.999 70.5279 757.988 76.0618 767.697C81.5958 777.405 89.5754 785.496 99.2068 791.163C108.838 796.83 119.786 799.877 130.96 800H673.04C684.215 799.877 695.162 796.83 704.794 791.163C714.425 785.496 722.405 777.405 727.939 767.697C733.472 757.988 736.368 746.999 736.337 735.824C736.305 724.649 733.348 713.677 727.76 704L456.72 251.52C451.016 242.115 442.983 234.34 433.398 228.943C423.814 223.547 413 220.712 402 220.712C391.001 220.712 380.187 223.547 370.602 228.943C361.017 234.34 352.985 242.115 347.28 251.52Z" stroke="#1E1E1E" stroke-width="25" stroke-linecap="round" stroke-linejoin="round"/>
<path d="M588.52 434.347L407.827 736C404.101 742.452 402.13 749.767 402.109 757.217C402.088 764.667 404.018 771.993 407.708 778.465C411.397 784.937 416.717 790.331 423.138 794.109C429.559 797.888 436.857 799.919 444.307 800H805.693C813.143 799.919 820.441 797.888 826.862 794.109C833.283 790.331 838.603 784.937 842.292 778.465C845.982 771.993 847.912 764.667 847.891 757.217C847.87 749.767 845.899 742.452 842.173 736L661.48 434.347C657.677 428.077 652.322 422.894 645.932 419.296C639.542 415.699 632.333 413.809 625 413.809C617.667 413.809 610.458 415.699 604.068 419.296C597.678 422.894 592.323 428.077 588.52 434.347Z" stroke="#1E1E1E" stroke-width="25" stroke-linecap="round" stroke-linejoin="round"/>
<path d="M791.347 555.897L670.885 756.998C668.401 761.299 667.087 766.175 667.073 771.142C667.059 776.108 668.346 780.992 670.805 785.307C673.265 789.622 676.811 793.218 681.092 795.736C685.373 798.255 690.238 799.609 695.205 799.664H936.129C941.095 799.609 945.961 798.255 950.242 795.736C954.522 793.218 958.069 789.622 960.528 785.307C962.988 780.992 964.275 776.108 964.261 771.142C964.247 766.175 962.933 761.299 960.449 756.998L839.987 555.897C837.451 551.718 833.882 548.262 829.622 545.863C825.362 543.465 820.555 542.205 815.667 542.205C810.778 542.205 805.972 543.465 801.712 545.863C797.452 548.262 793.882 551.718 791.347 555.897Z" stroke="#1E1E1E" stroke-width="25" stroke-linecap="round" stroke-linejoin="round"/>
</svg>
